<svg xmlns="http://www.w3.org/2000/svg" version="1.1" width="63.1" height="63" viewBox="0 0 63.1 63" xml:space="preserve"><path d="M31.6 63C14.1 63 0 48.9 0 31.5 0 14.1 14.1 0 31.6 0s31.6 14.1 31.6 31.5C63.1 48.9 49 63 31.6 63zM31.6 55.9c3.2 0 6.2-0.6 9-1.7l-6.7-13.5c-0.6 0.1-1.2 0.2-1.9 0.2 -0.4 0-0.8 0-1.2-0.1L25.4 55C27.4 55.6 29.5 55.9 31.6 55.9zM34.1 26.1c-3-1.1-6.3 0.4-7.4 3.3 -1.1 3 0.4 6.3 3.4 7.4 3 1.1 6.3-0.4 7.4-3.3C38.6 30.5 37.1 27.2 34.1 26.1zM21 53.4L26.4 39c-0.8-0.6-1.5-1.3-2.1-2.1L10 42.7C12.4 47.3 16.3 51.1 21 53.4zM8.2 24.8c-0.6 2.1-0.9 4.3-0.9 6.7 0 2.4 0.4 4.7 1 6.8l14.3-5.9c0-0.4-0.1-0.8-0.1-1.2 0-0.4 0-0.7 0.1-1L8.2 24.8zM9.9 20.4l14.3 5.4c0.4-0.6 0.9-1.2 1.5-1.7L19 10.6C15.1 13 12 16.3 9.9 20.4zM23.3 8.6L29.9 22c0.7-0.2 1.4-0.2 2.1-0.2 0.3 0 0.6 0 0.9 0.1L38.1 8c-2.1-0.6-4.2-0.9-6.5-0.9C28.7 7.1 25.9 7.6 23.3 8.6zM48.9 14.2c-1.8-1.9-4-3.4-6.4-4.6l-5.2 13.7c0.8 0.6 1.6 1.3 2.2 2.1l9.3-3.8L48.9 14.2zM48.9 26.8l-7.5 3.1c0.1 0.5 0.1 0.9 0.1 1.4 0 0.4 0 0.7-0.1 1l7.5 2.8L48.9 26.8zM49 40.2l-9.2-3.5c-0.5 0.7-1 1.3-1.6 1.8l6.7 13.4c1.5-1 2.9-2.1 4.1-3.3L49 40.2z" fill="#1976D2"/></svg>